<?xml version="1.0" encoding="UTF-8" standalone="no"?>
<!-- Created with Inkscape (http://www.inkscape.org/) -->

<svg
   xmlns:dc="http://purl.org/dc/elements/1.1/"
   xmlns:cc="http://creativecommons.org/ns#"
   xmlns:rdf="http://www.w3.org/1999/02/22-rdf-syntax-ns#"
   xmlns:svg="http://www.w3.org/2000/svg"
   xmlns="http://www.w3.org/2000/svg"
   xmlns:sodipodi="http://sodipodi.sourceforge.net/DTD/sodipodi-0.dtd"
   xmlns:inkscape="http://www.inkscape.org/namespaces/inkscape"
   width="210mm"
   height="297mm"
   viewBox="0 0 744.09448819 1052.3622047"
   id="svg4185"
   version="1.1"
   inkscape:version="0.91 r13725"
   sodipodi:docname="MovementRule.svg"
   inkscape:export-filename="U:\Users\pgiraudo2\gama_workspace\snubbies\Documentation\figures\MovementRules.png"
   inkscape:export-xdpi="299"
   inkscape:export-ydpi="299">
  <defs
     id="defs4187">
    <marker
       inkscape:stockid="Arrow1Lend"
       orient="auto"
       refY="0.0"
       refX="0.0"
       id="marker7145"
       style="overflow:visible;"
       inkscape:isstock="true">
      <path
         id="path7147"
         d="M 0.0,0.0 L 5.0,-5.0 L -12.5,0.0 L 5.0,5.0 L 0.0,0.0 z "
         style="fill-rule:evenodd;stroke:#000000;stroke-width:1pt;stroke-opacity:1;fill:#000000;fill-opacity:1"
         transform="scale(0.8) rotate(180) translate(12.5,0)" />
    </marker>
    <marker
       inkscape:isstock="true"
       style="overflow:visible"
       id="marker6617"
       refX="0.0"
       refY="0.0"
       orient="auto"
       inkscape:stockid="Arrow1Lstart">
      <path
         transform="scale(0.8) translate(12.5,0)"
         style="fill-rule:evenodd;stroke:#000000;stroke-width:1pt;stroke-opacity:1;fill:#000000;fill-opacity:1"
         d="M 0.0,0.0 L 5.0,-5.0 L -12.5,0.0 L 5.0,5.0 L 0.0,0.0 z "
         id="path6619" />
    </marker>
    <marker
       inkscape:isstock="true"
       style="overflow:visible;"
       id="marker6571"
       refX="0.0"
       refY="0.0"
       orient="auto"
       inkscape:stockid="Arrow1Lend"
       inkscape:collect="always">
      <path
         transform="scale(0.8) rotate(180) translate(12.5,0)"
         style="fill-rule:evenodd;stroke:#000000;stroke-width:1pt;stroke-opacity:1;fill:#000000;fill-opacity:1"
         d="M 0.0,0.0 L 5.0,-5.0 L -12.5,0.0 L 5.0,5.0 L 0.0,0.0 z "
         id="path6573" />
    </marker>
    <marker
       inkscape:stockid="Arrow1Lstart"
       orient="auto"
       refY="0.0"
       refX="0.0"
       id="Arrow1Lstart"
       style="overflow:visible"
       inkscape:isstock="true"
       inkscape:collect="always">
      <path
         id="path6205"
         d="M 0.0,0.0 L 5.0,-5.0 L -12.5,0.0 L 5.0,5.0 L 0.0,0.0 z "
         style="fill-rule:evenodd;stroke:#000000;stroke-width:1pt;stroke-opacity:1;fill:#000000;fill-opacity:1"
         transform="scale(0.8) translate(12.5,0)" />
    </marker>
    <marker
       inkscape:stockid="Arrow1Lend"
       orient="auto"
       refY="0.0"
       refX="0.0"
       id="marker6491"
       style="overflow:visible;"
       inkscape:isstock="true">
      <path
         id="path6493"
         d="M 0.0,0.0 L 5.0,-5.0 L -12.5,0.0 L 5.0,5.0 L 0.0,0.0 z "
         style="fill-rule:evenodd;stroke:#000000;stroke-width:1pt;stroke-opacity:1;fill:#000000;fill-opacity:1"
         transform="scale(0.8) rotate(180) translate(12.5,0)" />
    </marker>
    <marker
       inkscape:stockid="Arrow1Lend"
       orient="auto"
       refY="0.0"
       refX="0.0"
       id="Arrow1Lend"
       style="overflow:visible;"
       inkscape:isstock="true"
       inkscape:collect="always">
      <path
         id="path6208"
         d="M 0.0,0.0 L 5.0,-5.0 L -12.5,0.0 L 5.0,5.0 L 0.0,0.0 z "
         style="fill-rule:evenodd;stroke:#000000;stroke-width:1pt;stroke-opacity:1;fill:#000000;fill-opacity:1"
         transform="scale(0.8) rotate(180) translate(12.5,0)" />
    </marker>
  </defs>
  <sodipodi:namedview
     id="base"
     pagecolor="#ffffff"
     bordercolor="#666666"
     borderopacity="1.0"
     inkscape:pageopacity="0.0"
     inkscape:pageshadow="2"
     inkscape:zoom="2"
     inkscape:cx="456.49685"
     inkscape:cy="609.45584"
     inkscape:document-units="px"
     inkscape:current-layer="layer1"
     showgrid="false"
     inkscape:window-width="1920"
     inkscape:window-height="1148"
     inkscape:window-x="-8"
     inkscape:window-y="-8"
     inkscape:window-maximized="1" />
  <metadata
     id="metadata4190">
    <rdf:RDF>
      <cc:Work
         rdf:about="">
        <dc:format>image/svg+xml</dc:format>
        <dc:type
           rdf:resource="http://purl.org/dc/dcmitype/StillImage" />
        <dc:title></dc:title>
      </cc:Work>
    </rdf:RDF>
  </metadata>
  <g
     inkscape:label="Calque 1"
     inkscape:groupmode="layer"
     id="layer1">
    <path
       style="fill:none;fill-rule:evenodd;stroke:#000000;stroke-width:1;stroke-linecap:butt;stroke-linejoin:miter;stroke-miterlimit:4;stroke-dasharray:none;stroke-dashoffset:0;stroke-opacity:1"
       id="path7119"
       sodipodi:type="arc"
       sodipodi:cx="-548.00427"
       sodipodi:cy="248.77182"
       sodipodi:rx="20.94138"
       sodipodi:ry="20.94138"
       sodipodi:start="0"
       sodipodi:end="0.79616965"
       d="m -527.06289,248.77182 a 20.94138,20.94138 0 0 1 -6.29395,14.96643"
       transform="matrix(-0.29859422,-0.95438016,0.95438016,-0.29859422,0,0)"
       sodipodi:open="true" />
    <circle
       style="fill:none;fill-rule:evenodd;stroke:#000000;stroke-width:1px;stroke-linecap:butt;stroke-linejoin:miter;stroke-opacity:1;fill-opacity:1"
       id="path4733"
       cx="401.5217"
       cy="450.36279"
       r="215.76837" />
    <circle
       style="fill:#ff0000;fill-rule:evenodd;stroke:#000000;stroke-width:1px;stroke-linecap:butt;stroke-linejoin:miter;stroke-opacity:1"
       id="path6171"
       cx="401.5217"
       cy="450.36279"
       r="6.7958541" />
    <path
       style="fill:#00ff00;fill-rule:evenodd;stroke:none;stroke-width:1px;stroke-linecap:butt;stroke-linejoin:miter;stroke-opacity:1"
       d="m 398.24306,249.67774 c 0.22156,3.65241 -2.96085,-0.9131 -3.87396,0 -0.18262,0.18262 0.18263,0.59218 0,0.7748 -0.18262,0.18262 -0.54379,-0.1155 -0.77479,0 -0.32668,0.16334 -0.47089,0.57219 -0.77479,0.77479 -0.4805,0.32033 -1.08759,0.42829 -1.54958,0.77479 -3.3512,3.3512 0.20525,0.12143 -3.09917,2.32438 -1.77998,1.18665 0.33223,0.44255 -1.54958,2.32437 -0.40836,0.40835 -1.06908,0.45446 -1.54959,0.77479 -0.20245,0.13497 -3.07324,3.02139 -3.09917,3.09917 -0.16334,0.49002 0.231,1.08759 0,1.54958 -0.1155,0.231 -0.59217,-0.18262 -0.77479,0 -0.18262,0.18262 0,0.51653 0,0.7748 0,0.28453 -0.0312,3.06799 0,3.09916 0.18262,0.18262 0.65929,-0.23099 0.77479,0 0.231,0.462 -0.16334,1.05957 0,1.54959 0.1155,0.3465 0.5722,0.47089 0.7748,0.77479 0.32033,0.48051 0.51652,1.03306 0.77479,1.54958 0.51653,1.03306 1.03305,2.06612 1.54958,3.09917 0.25827,0.51653 0.45446,1.06908 0.77479,1.54959 0.6577,0.98653 1.27893,0.92231 2.32438,1.54958 0.79848,0.47909 1.57943,0.99087 2.32438,1.54958 1.29682,0.97262 1.32493,1.73297 3.09916,2.32438 0.41933,0.13977 2.83522,0 3.09917,0 1.54958,0 3.09917,0 4.64875,0 0.51653,0 1.03306,0 1.54959,0 0.51652,0 1.04847,-0.12528 1.54958,0 0.56025,0.14006 0.97562,0.71102 1.54958,0.77479 2.31016,0.25669 4.64876,0 6.97313,0 0.51653,0 1.04848,-0.12527 1.54959,0 0.56025,0.14006 1.03305,0.51653 1.54958,0.77479 1.29132,0 2.59562,-0.18262 3.87396,0 0.57169,0.0817 0.97994,0.67986 1.54958,0.7748 1.78325,0.2972 3.65081,-0.35455 5.42355,0 0.56628,0.11325 1.01339,0.56031 1.54958,0.77479 1.57498,0.62999 2.51119,0.64107 3.87396,1.54958 0.3039,0.2026 0.44811,0.61145 0.77479,0.77479 0.231,0.1155 0.5438,-0.1155 0.77479,0 0.32669,0.16334 0.4709,0.5722 0.7748,0.7748 0.4805,0.32033 1.14123,0.36644 1.54958,0.77479 0.40835,0.40835 0.36644,1.14123 0.77479,1.54958 3.95948,3.95948 -1.08063,-3.24868 3.09917,2.32438 1.11742,1.48989 2.14099,3.05178 3.09917,4.64875 1.18847,1.98079 1.87488,4.23947 3.09917,6.19833 0.68439,1.09504 1.63997,2.00414 2.32437,3.09917 0.61215,0.97943 0.99652,2.08521 1.54959,3.09917 0.99706,1.82795 2.23755,3.52799 3.09916,5.42354 0.44064,0.96941 0.43806,2.08897 0.7748,3.09917 4.20351,12.61056 -1.24133,-6.74816 2.32437,9.2975 0.12528,0.56375 0.51653,1.03306 0.77479,1.54959 0.25827,0.51653 0.45446,1.06908 0.7748,1.54958 0.20259,0.3039 0.57219,0.4709 0.77479,0.77479 0.32033,0.48051 0.45445,1.06908 0.77479,1.54959 0.2026,0.3039 0.57219,0.47089 0.77479,0.77479 0.32034,0.48051 0.4283,1.08759 0.77479,1.54958 0.43829,0.58439 1.03306,1.03306 1.54959,1.54959 0.51652,0.51653 0.9652,1.11129 1.54958,1.54958 0.462,0.3465 1.03306,0.51653 1.54958,0.77479 1.54959,0.7748 3.09917,1.54959 4.64876,2.32438 1.03305,0.51653 2.03756,1.09461 3.09916,1.54958 3.0631,1.31276 6.81545,1.96251 10.0723,2.32438 1.5445,0.17161 4.58103,0 6.19834,0 2.06611,0 4.13222,0 6.19833,0 0.77479,0 1.56463,0.15195 2.32438,0 0.56628,-0.11326 0.98584,-0.64952 1.54958,-0.77479 2.71346,-1.74992 5.70891,-0.30583 8.52271,-0.77479 0.56964,-0.0949 1.03306,-0.51653 1.54959,-0.7748 1.29132,-0.25826 2.56723,-0.61145 3.87396,-0.77479 0.7688,-0.0961 1.54958,0 2.32437,0 1.29132,0 2.58264,0 3.87396,0 0.25827,0 0.59217,0.18262 0.77479,0 0.18262,-0.18262 -0.18262,-0.59217 0,-0.77479 0.18262,-0.18262 0.59217,0.18262 0.7748,0 0.18262,-0.18262 0,-0.51653 0,-0.77479 0.25826,-0.25827 0.47089,-0.57219 0.77479,-0.77479 0.4805,-0.32034 1.06908,-0.45446 1.54958,-0.7748 0.31831,-0.2122 2.11217,-2.00607 2.32438,-2.32437 2.6094,-3.9141 0.006,-0.0179 0.77479,-2.32438 0.18262,-0.54786 0.51653,-1.03305 0.77479,-1.54958 0.51653,-1.03306 1.03306,-2.06611 1.54958,-3.09917 0.25827,-0.51653 0.66154,-0.9833 0.7748,-1.54958 0.15195,-0.75975 0,-1.54959 0,-2.32438 0,-0.25826 -0.1155,-0.54379 0,-0.77479 0.16334,-0.32668 0.65929,-0.4283 0.77479,-0.77479 0.24501,-0.73504 0,-1.54959 0,-2.32438 0,-1.29132 0,-2.58264 0,-3.87396 0,-1.29132 0,-2.58264 0,-3.87396 0,-0.51653 0.231,-1.08759 0,-1.54958 -0.1155,-0.231 -0.59217,0.18262 -0.77479,0 -0.18262,-0.18262 0.1155,-0.5438 0,-0.77479 -0.16334,-0.32669 -0.6593,-0.4283 -0.7748,-0.7748 -0.16334,-0.49002 0.231,-1.08758 0,-1.54958 -0.11549,-0.231 -0.59217,0.18262 -0.77479,0 -0.36524,-0.36524 0.231,-1.08759 0,-1.54958 -0.32668,-0.65337 -1.31858,-0.85659 -1.54958,-1.54959 -0.16334,-0.49002 0.12528,-1.04848 0,-1.54958 -0.14006,-0.56026 -0.59217,-1.00173 -0.77479,-1.54959 -0.0817,-0.24501 0.1155,-0.54379 0,-0.77479 -1.77296,-3.54592 0.32113,3.28777 -1.54959,-2.32437 -0.16334,-0.49002 0.36524,-1.18435 0,-1.54959 -0.18262,-0.18262 -0.59217,0.18262 -0.77479,0 -0.36524,-0.36524 0.36524,-1.18434 0,-1.54958 -0.18262,-0.18262 -0.54379,0.1155 -0.77479,0 -0.32668,-0.16334 -0.51653,-0.51653 -0.77479,-0.77479 -0.25827,-0.25827 -0.61145,-0.44811 -0.77479,-0.7748 -0.1155,-0.23099 0,-0.51652 0,-0.77479 -0.25827,-0.51653 -0.45446,-1.06908 -0.7748,-1.54958 -0.59599,-0.89399 -1.72838,-1.43039 -2.32437,-2.32438 -0.32034,-0.4805 -0.4283,-1.08758 -0.77479,-1.54958 -0.72336,-0.96448 -2.98994,-2.98993 -3.87396,-3.87396 -0.25827,-0.25826 -0.55565,-0.4826 -0.7748,-0.77479 -0.55871,-0.74495 -0.99087,-1.57943 -1.54958,-2.32438 -0.43829,-0.58438 -1.03306,-1.03305 -1.54958,-1.54958 -0.51653,-0.51653 -1.03306,-1.03306 -1.54959,-1.54959 -0.25826,-0.25826 -0.47089,-0.57219 -0.77479,-0.77479 -0.48051,-0.32034 -1.08759,-0.42829 -1.54958,-0.77479 -0.0764,-0.0573 -2.82287,-2.68471 -3.09917,-3.09917 -0.32034,-0.4805 -0.36644,-1.14123 -0.77479,-1.54958 -0.40835,-0.40835 -1.06908,-0.45446 -1.54959,-0.77479 -1.77998,-1.18666 0.33223,-0.44256 -1.54958,-2.32438 -0.18262,-0.18262 -0.5438,0.1155 -0.77479,0 -0.32668,-0.16334 -0.51653,-0.51653 -0.7748,-0.77479 -0.51652,-0.51653 -1.14438,-0.94179 -1.54958,-1.54959 -0.14326,-0.21488 0.18262,-0.59217 0,-0.77479 -0.18262,-0.18262 -0.59217,0.18262 -0.77479,0 -0.18262,-0.18262 0.18262,-0.59217 0,-0.77479 -0.18262,-0.18262 -0.59217,0.18262 -0.77479,0 -1.03365,-1.03365 1.03364,-0.51594 0,-1.54958 -0.18262,-0.18262 -0.5438,0.1155 -0.7748,0 -0.65336,-0.32668 -0.94178,-1.14439 -1.54958,-1.54959 -0.4805,-0.32033 -1.06908,-0.45445 -1.54958,-0.77479 -0.3039,-0.2026 -0.51653,-0.51653 -0.77479,-0.77479 -0.25827,-0.25827 -0.5722,-0.47089 -0.7748,-0.77479 -0.32033,-0.48051 -0.36644,-1.14124 -0.77479,-1.54959 -0.40835,-0.40835 -1.06908,-0.45445 -1.54958,-0.77479 -0.6078,-0.4052 -0.94179,-1.14438 -1.54959,-1.54958 -0.4805,-0.32034 -1.05438,-0.47768 -1.54958,-0.77479 -0.79848,-0.4791 -1.52589,-1.0705 -2.32438,-1.54959 -0.99039,-0.59424 -2.10877,-0.95534 -3.09916,-1.54958 -1.58697,0.16004 -2.07437,-1.64118 -3.09917,-2.32438 -0.48051,-0.32034 -1.06908,-0.45445 -1.54959,-0.77479 -0.60779,-0.4052 -0.85658,-1.31859 -1.54958,-1.54958 -0.49002,-0.16334 -1.04848,0.12527 -1.54958,0 -5.05831,-1.26458 2.9273,-0.41605 -3.87396,-1.54959 -0.76425,-0.12737 -1.57272,0.18792 -2.32438,0 -0.35433,-0.0886 -0.51653,-0.51653 -0.77479,-0.77479 -1.03306,-0.25826 -2.04502,-0.6242 -3.09917,-0.77479 -0.767,-0.10957 -1.56463,0.15195 -2.32437,0 -0.56629,-0.11326 -1.00173,-0.59217 -1.54959,-0.77479 -0.24501,-0.0817 -0.54379,0.1155 -0.77479,0 -0.32668,-0.16334 -0.4283,-0.6593 -0.77479,-0.7748 -0.46074,-0.15357 -3.73356,0 -4.64875,0 -0.78026,0 -4.22028,-0.14282 -4.64876,0 -0.34649,0.1155 -0.42829,0.6593 -0.77479,0.7748 -0.49002,0.16334 -1.03305,0 -1.54958,0 -0.25827,0 -0.5438,-0.1155 -0.77479,0 -0.32668,0.16334 -0.44811,0.61145 -0.7748,0.77479 -0.61983,0.30991 -1.70454,-0.30992 -2.32437,0 -0.32668,0.16334 -0.44811,0.61145 -0.77479,0.77479 -0.231,0.1155 -0.5438,-0.1155 -0.7748,0 -3.65871,1.82936 4.72903,-0.40747 -3.09916,1.54958 -1.54959,0.3874 0,-0.77479 -2.32438,0 -0.3465,0.1155 -0.43908,0.63092 -0.77479,0.7748 -1.50134,0.64343 -3.13217,0.94295 -4.64875,1.54958 -1.07239,0.42895 -2.00345,1.18434 -3.09917,1.54958 -0.49002,0.16334 -1.04848,-0.12527 -1.54958,0 -0.56026,0.14007 -1.00173,0.59218 -1.54959,0.7748 -0.41932,0.13977 -2.83522,0 -3.09917,0 -1.54958,0 -3.09916,0 -4.64875,0 -0.77479,0 -1.56463,-0.15195 -2.32437,0 -0.56629,0.11325 -1.00173,0.59217 -1.54959,0.77479 -0.24501,0.0817 -0.51653,0 -0.77479,0 -1.29132,0 -2.60772,-0.25325 -3.87396,0 -1.17501,0.235 -1.72034,1.4642 -3.09917,0.77479 -1.15499,-0.5775 -2.06611,-1.54958 -3.09917,-2.32438 z"
       id="path6173"
       inkscape:connector-curvature="0" />
    <path
       style="fill:#aad400;fill-rule:evenodd;stroke:none;stroke-width:1px;stroke-linecap:butt;stroke-linejoin:miter;stroke-opacity:1"
       d="m 371.70216,365.65457 c -0.51652,1.29132 -1.03305,2.58264 -1.54958,3.87396 -0.25826,0.25826 -0.61145,0.44811 -0.77479,0.77479 -0.1401,0.28019 0,3.33506 0,3.87396 0,0.25826 0,0.51653 0,0.77479 0,0.25827 -0.1155,0.5438 0,0.77479 0.16334,0.32668 0.68621,0.42046 0.77479,0.7748 0.18792,0.75165 -0.18791,1.57271 0,2.32437 0.0886,0.35434 0.51653,0.51653 0.77479,0.77479 0.51653,0.51653 1.1113,0.9652 1.54959,1.54959 0.34649,0.46199 0.45445,1.06908 0.77479,1.54958 0.2026,0.3039 0.57219,0.47089 0.77479,0.77479 0.32034,0.48051 0.29429,1.22925 0.77479,1.54959 0.42978,0.28652 1.05957,-0.16334 1.54959,0 0.34649,0.1155 0.44811,0.61145 0.77479,0.77479 0.23579,0.1179 1.97544,0 2.32437,0 1.54959,0 3.09917,0 4.64876,0 0.28453,0 3.06799,-0.0312 3.09916,0 0.18262,0.18262 -0.18262,0.59217 0,0.77479 0.36524,0.36524 1.18435,-0.36524 1.54959,0 0.18262,0.18262 0,0.51653 0,0.77479 0.25826,0 0.59217,-0.18262 0.77479,0 0.18262,0.18262 -0.231,0.6593 0,0.77479 0.462,0.231 1.08759,-0.23099 1.54958,0 0.231,0.1155 -0.18262,0.59218 0,0.7748 0.18262,0.18262 0.59218,-0.18262 0.7748,0 1.03305,1.03305 -1.64359,0.74346 0.77479,1.54958 0.49002,0.16334 1.05956,-0.16334 1.54958,0 0.3465,0.1155 0.4283,0.65929 0.77479,0.77479 0.49002,0.16334 1.03306,0 1.54959,0 0.51653,0 1.03305,0 1.54958,0 0.18791,0 2.29946,0.0249 2.32438,0 0.18262,-0.18262 -0.1155,-0.54379 0,-0.77479 0.16334,-0.32668 0.51653,-0.51653 0.77479,-0.77479 0.25826,-0.25827 0.47089,-0.57219 0.77479,-0.77479 0.48051,-0.32034 1.14123,-0.36644 1.54958,-0.7748 0.40836,-0.40835 0.45446,-1.06907 0.7748,-1.54958 0.59599,-0.89399 1.72838,-1.43038 2.32437,-2.32438 0.14326,-0.21488 0,-0.51652 0,-0.77479 0,-0.25826 0,-0.51652 0,-0.77479 0,-1.29132 0,-2.58264 0,-3.87396 0,-0.18791 0.0249,-2.29946 0,-2.32437 -0.18262,-0.18262 -0.59217,0.18262 -0.77479,0 -0.18262,-0.18262 0.1155,-0.5438 0,-0.7748 -0.16334,-0.32668 -0.51653,-0.51652 -0.77479,-0.77479 -0.25827,-0.25826 -0.51653,-0.51653 -0.77479,-0.77479 -1.77647,-1.77647 0.32668,0.49002 -1.54959,-2.32438 -0.2026,-0.30389 -0.61145,-0.44811 -0.77479,-0.77479 -0.231,-0.46199 0.36524,-1.18434 0,-1.54958 -0.18262,-0.18262 -0.59217,0.18262 -0.77479,0 -0.18262,-0.18262 0.18262,-0.59217 0,-0.77479 -0.18262,-0.18262 -0.54379,0.1155 -0.77479,0 -0.32668,-0.16334 -0.44811,-0.61146 -0.77479,-0.7748 -0.42032,-0.21015 -2.88717,0.212 -3.09917,0 -0.18262,-0.18262 0.18262,-0.59217 0,-0.77479 -0.3874,-0.38739 -1.93698,0.3874 -2.32438,0 -0.40835,-0.40835 -0.59217,-1.00172 -0.77479,-1.54958 -0.0817,-0.24501 0,-0.51653 0,-0.77479 0,-0.51653 0,-1.03306 0,-1.54959 0,-1.54958 0,-3.09917 0,-4.64875 0,-0.25826 0,-0.51653 0,-0.77479 0,-0.25827 0.18262,-0.59217 0,-0.77479 -0.18262,-0.18262 -0.52978,0.0817 -0.77479,0 -3.36387,-1.12129 0.53228,-0.7748 -3.87396,-0.7748 -1.29132,0 -2.58264,0 -3.87396,0 -0.25827,0 -0.59217,-0.18262 -0.77479,0 -0.18262,0.18262 0.18262,0.59218 0,0.7748 -0.40836,0.40835 -1.14124,0.36644 -1.54959,0.77479 -2.85801,2.85801 1.85542,0.31264 -2.32437,3.09917 -0.21489,0.14326 -0.59218,-0.18262 -0.7748,0 -0.18262,0.18262 0.18262,0.59217 0,0.77479 -0.18262,0.18262 -0.59217,-0.18262 -0.77479,0 -0.36524,0.36524 0.36524,1.18434 0,1.54958 -0.18262,0.18262 -0.77479,0.25827 -0.77479,0 0,-0.25826 1.03306,0 0.77479,0 -0.51653,0 -1.08758,-0.231 -1.54958,0 -0.231,0.1155 0.18262,0.59217 0,0.77479 -0.76432,0.76432 -1.54959,-1.5876 -1.54959,0.7748"
       id="path6179"
       inkscape:connector-curvature="0" />
    <path
       style="fill:#aad400;fill-rule:evenodd;stroke:none;stroke-width:1px;stroke-linecap:butt;stroke-linejoin:miter;stroke-opacity:1"
       d="m 357.95388,309.33672 c -0.77479,1.03306 -1.66,1.99187 -2.32437,3.09917 -0.13288,0.22146 0,0.51653 0,0.77479 0,0.25827 0,0.51653 0,0.77479 0,1.54959 0,3.09917 0,4.64876 0,0.1879 -0.0249,2.29945 0,2.32437 1.03305,1.03306 0.74346,-1.64358 1.54958,0.77479 0.16334,0.49003 -0.231,1.08759 0,1.54959 0.1155,0.231 0.59217,-0.18262 0.77479,0 0.36524,0.36524 -0.36524,1.18434 0,1.54958 0.18262,0.18262 0.59217,-0.18262 0.77479,0 0.18262,0.18262 -0.1155,0.5438 0,0.77479 0.85656,1.71311 0.48087,0.24044 1.54959,0.7748 0.27711,0.13855 2.88436,2.77695 3.09917,3.09916 0.32033,0.48051 0.36644,1.14124 0.77479,1.54959 0.40835,0.40835 1.06908,0.45445 1.54958,0.77479 0.32841,0.21894 2.16409,2.0038 2.32438,2.32437 0.231,0.462 -0.231,1.08759 0,1.54959 0.16334,0.32668 0.61145,0.44811 0.77479,0.77479 0.1155,0.231 -0.18262,0.59217 0,0.77479 0.18262,0.18262 0.51653,0 0.77479,0 0.25827,0.25827 0.57219,0.4709 0.77479,0.77479 0.32034,0.48051 0.45446,1.06908 0.7748,1.54959 0.71058,1.06588 1.19528,0.79686 2.32437,1.54958 0.3039,0.2026 0.44811,0.61145 0.77479,0.77479 0.231,0.1155 0.51653,0 0.77479,0 0.25827,0 0.51653,0 0.7748,0 0.25826,0 0.51652,0 0.77479,0 0.25826,0 0.59217,0.18262 0.77479,0 0.18262,-0.18262 -0.18262,-0.59217 0,-0.77479 0.18262,-0.18262 0.59217,0.18262 0.77479,0 0.18262,-0.18262 -0.231,-0.65929 0,-0.77479 0.462,-0.231 1.08759,0.231 1.54959,0 0.46199,-0.231 -0.36524,-1.18434 0,-1.54958 0.18262,-0.18262 0.59217,0.18262 0.77479,0 0.18262,-0.18262 -0.1155,-0.5438 0,-0.7748 0.34336,-0.68672 1.85417,-1.61907 2.32437,-2.32437 0.8903,-1.33544 0.7748,-1.17116 0.7748,-2.32438 0,-0.25826 -0.1155,-0.54379 0,-0.77479 0.16334,-0.32668 0.51652,-0.51653 0.77479,-0.77479 0.99735,-0.99735 1.85188,-1.68169 2.32437,-3.09917 0.20788,-0.62363 -0.24755,-2.60406 0,-3.09917 0.16334,-0.32668 0.61146,-0.44811 0.7748,-0.77479 0.23099,-0.462 -0.36524,-1.18434 0,-1.54958 0.18262,-0.18262 0.51652,0 0.77479,0 0,-0.25827 -0.1155,-0.5438 0,-0.77479 0.85655,-1.71311 0.48087,-0.24044 1.54958,-0.7748 0.92975,-0.46487 1.39463,-1.8595 2.32438,-2.32437 0.231,-0.1155 0.54379,0.1155 0.77479,0 0.65336,-0.32668 0.89622,-1.22291 1.54958,-1.54959 1.06872,-0.53435 0.69303,0.93832 1.54959,-0.77479 0.1155,-0.231 -0.18262,-0.59217 0,-0.77479 0.18262,-0.18262 0.59217,0.18262 0.77479,0 0.18262,-0.18262 0,-0.51653 0,-0.77479 0,-0.25827 0,-0.51653 0,-0.77479 0,-0.25827 0,-0.51653 0,-0.7748 0,-0.25826 0.18262,-0.59217 0,-0.77479 -0.18262,-0.18262 -0.54379,0.1155 -0.77479,0 -3.2245,-1.61225 0.82828,0.0535 -0.77479,-1.54958 -0.40836,-0.40835 -1.06908,-0.45446 -1.54959,-0.77479 -0.60779,-0.4052 -0.94179,-1.14439 -1.54958,-1.54959 -1.33544,-0.89029 -1.17117,-0.77479 -2.32438,-0.77479 -0.25826,0 -0.54379,0.1155 -0.77479,0 -0.32668,-0.16334 -0.44811,-0.61145 -0.77479,-0.77479 -0.3309,-0.16545 -3.56768,0 -3.87396,0 -1.03306,0 -2.06611,0 -3.09917,0 -0.25826,0 -0.59217,-0.18262 -0.77479,0 -0.18262,0.18262 0.18262,0.59217 0,0.77479 -0.51475,0.51475 -1.03484,-0.51474 -1.54959,0 -0.18262,0.18262 0.18262,0.59217 0,0.77479 -0.18262,0.18262 -0.51652,0 -0.77479,0 -1.54958,0 -3.09917,0 -4.64875,0 -2.58264,0 -5.16528,0 -7.74792,0 -0.51653,0 -1.03305,0 -1.54958,0 -0.25827,0 -0.77479,0.25827 -0.77479,0 0,-0.25826 1.03305,0 0.77479,0 -0.51653,0 -1.03306,0 -1.54959,0 -0.25826,0 -0.77479,0.25827 -0.77479,0 0,-0.25826 1.03306,0 0.77479,0 -0.51652,0 -1.03305,0 -1.54958,0"
       id="path6181"
       inkscape:connector-curvature="0" />
    <path
       style="fill:#aad400;fill-rule:evenodd;stroke:none;stroke-width:1px;stroke-linecap:butt;stroke-linejoin:miter;stroke-opacity:1"
       d="m 486.56935,389.91509 c -1.15102,3.45305 -1.88633,5.01829 -2.32438,8.52271 -0.15307,1.22455 0,4.17201 0,5.42354 0,0.5389 -0.1401,3.59377 0,3.87396 0.16334,0.32668 0.51653,0.51653 0.77479,0.77479 0.25827,0.25827 0.4709,0.5722 0.77479,0.77479 0.48051,0.32034 1.06908,0.45446 1.54959,0.7748 0.3039,0.2026 0.4826,0.55564 0.77479,0.77479 0.74495,0.55871 1.57943,0.99087 2.32438,1.54958 0.29219,0.21915 0.42829,0.65929 0.77479,0.77479 0.49002,0.16334 1.08759,-0.23099 1.54958,0 0.231,0.1155 -0.18262,0.59218 0,0.7748 0.212,0.212 2.67885,-0.21016 3.09917,0 0.32668,0.16334 0.44811,0.61145 0.77479,0.77479 0.231,0.1155 0.5438,-0.1155 0.77479,0 0.32668,0.16334 0.42046,0.68621 0.7748,0.77479 0.75165,0.18791 1.56463,-0.15195 2.32437,0 0.56628,0.11326 1.03306,0.51653 1.54959,0.77479 0.77479,0.25827 1.51878,0.64053 2.32437,0.77479 0.76425,0.12738 1.54958,0 2.32438,0 1.29132,0 2.58264,0 3.87396,0 0.40515,0 2.89544,0.10187 3.09916,0 0.32057,-0.16028 2.10544,-1.99597 2.32438,-2.32437 0.32034,-0.48051 0.63473,-0.98933 0.77479,-1.54959 0.12528,-0.5011 0,-1.03305 0,-1.54958 0,-0.81108 -0.15751,-4.01869 0,-4.64875 0.14007,-0.56025 0.63473,-0.98933 0.77479,-1.54959 0.17089,-0.68353 -0.22124,-2.43543 0,-3.09916 1.87072,-5.61214 -0.22337,1.22154 1.54959,-2.32438 0.231,-0.462 -0.231,-1.08759 0,-1.54958 0.16334,-0.32668 0.61145,-0.44811 0.77479,-0.7748 0.1536,-0.30719 -0.1584,-2.16598 0,-2.32437 0.18262,-0.18262 0.59217,0.18262 0.77479,0 0.18262,-0.18262 0,-0.51653 0,-0.77479 0,-0.25827 0,-0.51653 0,-0.77479 0,-0.34894 0.1179,-2.08859 0,-2.32438 -0.16334,-0.32668 -0.51653,-0.51653 -0.77479,-0.77479 -0.25826,-0.25827 -0.47089,-0.5722 -0.77479,-0.77479 -1.14003,-0.76003 -2.61397,-1.12959 -3.87396,-1.54959 -0.77479,-0.25826 -1.53206,-0.57671 -2.32438,-0.77479 -0.40638,-0.1016 -2.96655,0.13261 -3.09917,0 -0.18262,-0.18262 0.18262,-0.59217 0,-0.77479 -0.16564,-0.16565 -2.672,0.14239 -3.09916,0 -0.54786,-0.18262 -0.98933,-0.63473 -1.54959,-0.77479 -0.60447,-0.15112 -3.74443,0 -4.64875,0 -0.25826,0 -0.51653,0 -0.77479,0 -0.25826,0 -0.54379,-0.1155 -0.77479,0 -0.65336,0.32668 -0.89622,1.2229 -1.54959,1.54958 -0.23099,0.1155 -0.54379,-0.1155 -0.77479,0 -0.65336,0.32668 -0.85659,1.31859 -1.54958,1.54958 -0.49002,0.16334 -1.08759,-0.23099 -1.54959,0 -0.23099,0.1155 0.18262,0.59218 0,0.7748 -0.18262,0.18262 -0.59217,-0.18262 -0.77479,0 -0.18262,0.18262 0.18262,0.59217 0,0.77479 -0.18262,0.18262 -0.51653,0 -0.77479,0 -2.59716,0 -2.24654,0.0195 -5.42354,-0.77479 z"
       id="path6183"
       inkscape:connector-curvature="0" />
    <circle
       style="fill:none;fill-rule:evenodd;stroke:#000000;stroke-width:1;stroke-linecap:butt;stroke-linejoin:miter;stroke-miterlimit:4;stroke-dasharray:1, 3;stroke-dashoffset:0;stroke-opacity:1"
       id="path6185"
       cx="401.5217"
       cy="450.36279"
       r="68.181694" />
    <text
       xml:space="preserve"
       style="font-style:normal;font-variant:normal;font-weight:normal;font-stretch:normal;font-size:17.5px;line-height:125%;font-family:sans-serif;-inkscape-font-specification:'sans-serif, Normal';text-align:start;letter-spacing:0px;word-spacing:0px;writing-mode:lr-tb;text-anchor:start;fill:#000000;fill-opacity:1;stroke:none;stroke-width:1px;stroke-linecap:butt;stroke-linejoin:miter;stroke-opacity:1"
       x="476.17267"
       y="296.94006"
       id="text6187"
       sodipodi:linespacing="125%"><tspan
         sodipodi:role="line"
         id="tspan6189"
         x="476.17267"
         y="296.94006">X</tspan></text>
    <path
       style="fill:none;fill-rule:evenodd;stroke:#000000;stroke-width:1px;stroke-linecap:butt;stroke-linejoin:miter;stroke-opacity:1;marker-end:url(#Arrow1Lend)"
       d="m 531.5942,264.97369 -47.77534,25.0357"
       id="path6199"
       inkscape:connector-curvature="0" />
    <path
       style="fill:none;fill-rule:evenodd;stroke:#000000;stroke-width:0.99999994px;stroke-linecap:butt;stroke-linejoin:miter;stroke-opacity:1;marker-start:url(#Arrow1Lstart);marker-end:url(#marker6491)"
       d="M 400.10202,449.52763 186.72658,462.69909"
       id="path6489"
       inkscape:connector-curvature="0" />
    <text
       sodipodi:linespacing="125%"
       id="text6557"
       y="470.46133"
       x="184.58707"
       style="font-style:normal;font-variant:normal;font-weight:normal;font-stretch:normal;font-size:12.5px;line-height:125%;font-family:sans-serif;-inkscape-font-specification:'sans-serif, Normal';text-align:start;letter-spacing:0px;word-spacing:0px;writing-mode:lr-tb;text-anchor:start;fill:#000000;fill-opacity:1;stroke:none;stroke-width:1px;stroke-linecap:butt;stroke-linejoin:miter;stroke-opacity:1"
       xml:space="preserve"
       transform="matrix(0.9981674,-0.06051322,0.06051322,0.9981674,0,0)"><tspan
         sodipodi:role="line"
         id="tspan6561"
         x="184.58707"
         y="470.46133">Long perception distance</tspan></text>
    <path
       style="fill:none;fill-rule:evenodd;stroke:#000000;stroke-width:1px;stroke-linecap:butt;stroke-linejoin:miter;stroke-opacity:1;marker-start:url(#marker6617);marker-end:url(#marker6571)"
       d="m 402.3335,451.34435 24.36039,59.99237"
       id="path6563"
       inkscape:connector-curvature="0" />
    <flowRoot
       xml:space="preserve"
       id="flowRoot6863"
       style="fill:black;stroke:none;stroke-opacity:1;stroke-width:1px;stroke-linejoin:miter;stroke-linecap:butt;fill-opacity:1;font-family:sans-serif;font-style:normal;font-weight:normal;font-size:40px;line-height:125%;letter-spacing:0px;word-spacing:0px"><flowRegion
         id="flowRegion6865"><rect
           id="rect6867"
           width="57.334606"
           height="44.163143"
           x="538.48041"
           y="479.01617" /></flowRegion><flowPara
         id="flowPara6869"></flowPara></flowRoot>    <flowRoot
       xml:space="preserve"
       id="flowRoot6871"
       style="fill:black;stroke:none;stroke-opacity:1;stroke-width:1px;stroke-linejoin:miter;stroke-linecap:butt;fill-opacity:1;font-family:sans-serif;font-style:normal;font-weight:normal;font-size:40px;line-height:125%;letter-spacing:0px;word-spacing:0px"><flowRegion
         id="flowRegion6873"><rect
           id="rect6875"
           width="2.3243759"
           height="55.010227"
           x="436.98267"
           y="475.14221" /></flowRegion><flowPara
         id="flowPara6877"></flowPara></flowRoot>    <flowRoot
       xml:space="preserve"
       id="flowRoot6879"
       style="font-style:normal;font-variant:normal;font-weight:normal;font-stretch:normal;font-size:12.5px;line-height:125%;font-family:sans-serif;-inkscape-font-specification:'sans-serif, Normal';text-align:start;letter-spacing:0px;word-spacing:0px;writing-mode:lr-tb;text-anchor:start;fill:#000000;fill-opacity:1;stroke:none;stroke-width:1px;stroke-linecap:butt;stroke-linejoin:miter;stroke-opacity:1"
       transform="translate(-140.23734,-72.830443)"><flowRegion
         id="flowRegion6881"><rect
           id="rect6883"
           width="79.028778"
           height="49.586662"
           x="485.79456"
           y="537.12555"
           style="font-style:normal;font-variant:normal;font-weight:normal;font-stretch:normal;font-size:12.5px;line-height:125%;font-family:sans-serif;-inkscape-font-specification:'sans-serif, Normal';text-align:start;writing-mode:lr-tb;text-anchor:start" /></flowRegion><flowPara
         id="flowPara6885">Short perception distance</flowPara></flowRoot>    <text
       sodipodi:linespacing="125%"
       id="text6899"
       y="392.62854"
       x="391.72321"
       style="font-style:normal;font-variant:normal;font-weight:normal;font-stretch:normal;font-size:12.5px;line-height:125%;font-family:sans-serif;-inkscape-font-specification:'sans-serif, Normal';text-align:start;letter-spacing:0px;word-spacing:0px;writing-mode:lr-tb;text-anchor:start;fill:#000000;fill-opacity:1;stroke:none;stroke-width:1px;stroke-linecap:butt;stroke-linejoin:miter;stroke-opacity:1"
       xml:space="preserve"><tspan
         y="392.62854"
         x="391.72321"
         id="tspan6901"
         sodipodi:role="line">X</tspan></text>
    <path
       style="fill:none;fill-rule:evenodd;stroke:#000000;stroke-width:1px;stroke-linecap:butt;stroke-linejoin:miter;stroke-opacity:1"
       d="M 401.38867,449.48363 481.19224,292.20087"
       id="path6903"
       inkscape:connector-curvature="0" />
    <flowRoot
       transform="matrix(0.45201298,-0.89201135,0.89201135,0.45201298,-274.63878,590.22877)"
       style="font-style:normal;font-variant:normal;font-weight:normal;font-stretch:normal;font-size:12.5px;line-height:125%;font-family:sans-serif;-inkscape-font-specification:'sans-serif, Normal';text-align:start;letter-spacing:0px;word-spacing:0px;writing-mode:lr-tb;text-anchor:start;fill:#000000;fill-opacity:1;stroke:none;stroke-width:1px;stroke-linecap:butt;stroke-linejoin:miter;stroke-opacity:1"
       id="flowRoot6905"
       xml:space="preserve"><flowRegion
         id="flowRegion6907"><rect
           style="font-style:normal;font-variant:normal;font-weight:normal;font-stretch:normal;font-size:12.5px;line-height:125%;font-family:sans-serif;-inkscape-font-specification:'sans-serif, Normal';text-align:start;writing-mode:lr-tb;text-anchor:start"
           y="537.12555"
           x="485.79456"
           height="20.919367"
           width="123.19195"
           id="rect6909" /></flowRegion><flowPara
         id="flowPara6913">Bearing direction</flowPara></flowRoot>    <path
       style="fill:none;fill-rule:evenodd;stroke:#000000;stroke-width:1;stroke-linecap:butt;stroke-linejoin:miter;stroke-opacity:1;stroke-miterlimit:4;stroke-dasharray:1,1;stroke-dashoffset:0"
       d="m 380.64038,385.3861 20.80451,64.05598 64.74034,-21.21512"
       id="path7105"
       inkscape:connector-curvature="0" />
    <path
       transform="matrix(0.4565879,-0.88967831,0.88948644,0.45696157,0,0)"
       d="m -192.16984,562.24866 a 23.987482,23.97953 0 0 1 -7.20945,17.13774"
       sodipodi:end="0.79616965"
       sodipodi:start="0"
       sodipodi:ry="23.97953"
       sodipodi:rx="23.987482"
       sodipodi:cy="562.24866"
       sodipodi:cx="-216.15732"
       sodipodi:type="arc"
       id="path7121"
       style="fill:none;fill-rule:evenodd;stroke:#000000;stroke-width:1.00000012;stroke-linecap:butt;stroke-linejoin:miter;stroke-miterlimit:4;stroke-dasharray:none;stroke-dashoffset:0;stroke-opacity:1"
       sodipodi:open="true" />
    <text
       xml:space="preserve"
       style="font-style:normal;font-variant:normal;font-weight:normal;font-stretch:normal;font-size:12.5px;line-height:125%;font-family:sans-serif;-inkscape-font-specification:'sans-serif, Normal';text-align:start;letter-spacing:0px;word-spacing:0px;writing-mode:lr-tb;text-anchor:start;fill:#000000;fill-opacity:1;stroke:none;stroke-width:1px;stroke-linecap:butt;stroke-linejoin:miter;stroke-opacity:1"
       x="75.601891"
       y="602.06683"
       id="text7123"
       sodipodi:linespacing="125%"
       transform="matrix(0.79758596,-0.6032053,0.6032053,0.79758596,0,0)"><tspan
         sodipodi:role="line"
         id="tspan7125"
         x="75.601891"
         y="602.06683">angle</tspan></text>
    <text
       transform="matrix(0.21257613,-0.97714451,0.97714451,0.21257613,0,0)"
       sodipodi:linespacing="125%"
       id="text7127"
       y="487.42334"
       x="-330.44882"
       style="font-style:normal;font-variant:normal;font-weight:normal;font-stretch:normal;font-size:12.5px;line-height:125%;font-family:sans-serif;-inkscape-font-specification:'sans-serif, Normal';text-align:start;letter-spacing:0px;word-spacing:0px;writing-mode:lr-tb;text-anchor:start;fill:#000000;fill-opacity:1;stroke:none;stroke-width:1px;stroke-linecap:butt;stroke-linejoin:miter;stroke-opacity:1"
       xml:space="preserve"><tspan
         y="487.42334"
         x="-330.44882"
         id="tspan7129"
         sodipodi:role="line">angle</tspan></text>
    <path
       style="fill:none;fill-rule:evenodd;stroke:#000000;stroke-width:1px;stroke-linecap:butt;stroke-linejoin:miter;stroke-opacity:1;marker-end:url(#marker7145)"
       d="m 358.57413,367.75968 34.82966,19.41325"
       id="path7137"
       inkscape:connector-curvature="0" />
    <flowRoot
       transform="translate(-185.34459,-197.30363)"
       style="font-style:normal;font-variant:normal;font-weight:normal;font-stretch:normal;font-size:12.5px;line-height:125%;font-family:sans-serif;-inkscape-font-specification:'sans-serif, Normal';text-align:start;letter-spacing:0px;word-spacing:0px;writing-mode:lr-tb;text-anchor:start;fill:#000000;fill-opacity:1;stroke:none;stroke-width:1px;stroke-linecap:butt;stroke-linejoin:miter;stroke-opacity:1"
       id="flowRoot7199"
       xml:space="preserve"><flowRegion
         id="flowRegion7201"><rect
           style="font-style:normal;font-variant:normal;font-weight:normal;font-stretch:normal;font-size:12.5px;line-height:125%;font-family:sans-serif;-inkscape-font-specification:'sans-serif, Normal';text-align:start;writing-mode:lr-tb;text-anchor:start"
           y="537.12555"
           x="485.79456"
           height="49.586662"
           width="79.028778"
           id="rect7203" /></flowRegion><flowPara
         id="flowPara7207">Short distance target</flowPara></flowRoot>    <flowRoot
       xml:space="preserve"
       id="flowRoot7221"
       style="font-style:normal;font-variant:normal;font-weight:normal;font-stretch:normal;font-size:12.5px;line-height:125%;font-family:sans-serif;-inkscape-font-specification:'sans-serif, Normal';text-align:start;letter-spacing:0px;word-spacing:0px;writing-mode:lr;text-anchor:start;fill:#000000;fill-opacity:1;stroke:none;stroke-width:1px;stroke-linecap:butt;stroke-linejoin:miter;stroke-opacity:1;"
       transform="translate(51.65541,-308.30363)"><flowRegion
         id="flowRegion7223"><rect
           id="rect7225"
           width="79.028778"
           height="49.586662"
           x="485.79456"
           y="537.12555"
           style="font-style:normal;font-variant:normal;font-weight:normal;font-stretch:normal;font-size:12.5px;line-height:125%;font-family:sans-serif;-inkscape-font-specification:'sans-serif, Normal';text-align:start;writing-mode:lr;text-anchor:start;" /></flowRegion><flowPara
         id="flowPara7301">Long distance target</flowPara></flowRoot>  </g>
</svg>
